<mxfile host="app.diagrams.net" modified="2023-11-15T08:34:19.594Z" agent="Mozilla/5.0 (Macintosh; Intel Mac OS X 10_15_7) AppleWebKit/537.36 (KHTML, like Gecko) Chrome/119.0.0.0 Safari/537.36" etag="QozSC5_NcVk_EvMuyvJH" version="22.1.1" type="google">
  <diagram id="C5RBs43oDa-KdzZeNtuy" name="Page-1">
    <mxGraphModel grid="0" page="1" gridSize="9" guides="1" tooltips="1" connect="1" arrows="1" fold="1" pageScale="1" pageWidth="1200" pageHeight="1920" math="0" shadow="0">
      <root>
        <mxCell id="WIyWlLk6GJQsqaUBKTNV-0" />
        <mxCell id="WIyWlLk6GJQsqaUBKTNV-1" parent="WIyWlLk6GJQsqaUBKTNV-0" />
        <mxCell id="c7sYR78lZFLPJRSmrGxY-26" value="`" style="rounded=1;whiteSpace=wrap;html=1;fillColor=default;" vertex="1" parent="WIyWlLk6GJQsqaUBKTNV-1">
          <mxGeometry x="279" y="126" width="468" height="297.5" as="geometry" />
        </mxCell>
        <mxCell id="c7sYR78lZFLPJRSmrGxY-57" style="edgeStyle=orthogonalEdgeStyle;rounded=0;orthogonalLoop=1;jettySize=auto;html=1;entryX=0.75;entryY=0;entryDx=0;entryDy=0;" edge="1" parent="WIyWlLk6GJQsqaUBKTNV-1" source="zkfFHV4jXpPFQw0GAbJ--0" target="c7sYR78lZFLPJRSmrGxY-5">
          <mxGeometry relative="1" as="geometry">
            <Array as="points">
              <mxPoint x="193" y="198" />
            </Array>
          </mxGeometry>
        </mxCell>
        <mxCell id="c7sYR78lZFLPJRSmrGxY-58" value="Response" style="edgeLabel;html=1;align=center;verticalAlign=middle;resizable=0;points=[];" connectable="0" vertex="1" parent="c7sYR78lZFLPJRSmrGxY-57">
          <mxGeometry x="0.2105" y="1" relative="1" as="geometry">
            <mxPoint y="-11" as="offset" />
          </mxGeometry>
        </mxCell>
        <mxCell id="zkfFHV4jXpPFQw0GAbJ--0" value="historyRouter" style="swimlane;fontStyle=2;align=center;verticalAlign=top;childLayout=stackLayout;horizontal=1;startSize=26;horizontalStack=0;resizeParent=1;resizeLast=0;collapsible=1;marginBottom=0;rounded=0;shadow=0;strokeWidth=1;swimlaneFillColor=none;swimlaneLine=1;" vertex="1" parent="WIyWlLk6GJQsqaUBKTNV-1">
          <mxGeometry x="425" y="183" width="160" height="211" as="geometry">
            <mxRectangle x="425" y="183" width="160" height="26" as="alternateBounds" />
          </mxGeometry>
        </mxCell>
        <mxCell id="zkfFHV4jXpPFQw0GAbJ--1" value="POST /" style="text;align=left;verticalAlign=top;spacingLeft=4;spacingRight=4;overflow=hidden;rotatable=0;points=[[0,0.5],[1,0.5]];portConstraint=eastwest;" vertex="1" parent="zkfFHV4jXpPFQw0GAbJ--0">
          <mxGeometry y="26" width="160" height="26" as="geometry" />
        </mxCell>
        <mxCell id="c7sYR78lZFLPJRSmrGxY-17" value="GET /" style="text;align=left;verticalAlign=top;spacingLeft=4;spacingRight=4;overflow=hidden;rotatable=0;points=[[0,0.5],[1,0.5]];portConstraint=eastwest;" vertex="1" parent="zkfFHV4jXpPFQw0GAbJ--0">
          <mxGeometry y="52" width="160" height="26" as="geometry" />
        </mxCell>
        <mxCell id="zkfFHV4jXpPFQw0GAbJ--2" value="GET /:id" style="text;align=left;verticalAlign=top;spacingLeft=4;spacingRight=4;overflow=hidden;rotatable=0;points=[[0,0.5],[1,0.5]];portConstraint=eastwest;rounded=0;shadow=0;html=0;" vertex="1" parent="zkfFHV4jXpPFQw0GAbJ--0">
          <mxGeometry y="78" width="160" height="26" as="geometry" />
        </mxCell>
        <mxCell id="c7sYR78lZFLPJRSmrGxY-18" value="PUT /:id" style="text;align=left;verticalAlign=top;spacingLeft=4;spacingRight=4;overflow=hidden;rotatable=0;points=[[0,0.5],[1,0.5]];portConstraint=eastwest;rounded=0;shadow=0;html=0;" vertex="1" parent="zkfFHV4jXpPFQw0GAbJ--0">
          <mxGeometry y="104" width="160" height="26" as="geometry" />
        </mxCell>
        <mxCell id="zkfFHV4jXpPFQw0GAbJ--3" value="GET /user/:userid" style="text;align=left;verticalAlign=top;spacingLeft=4;spacingRight=4;overflow=hidden;rotatable=0;points=[[0,0.5],[1,0.5]];portConstraint=eastwest;rounded=0;shadow=0;html=0;" vertex="1" parent="zkfFHV4jXpPFQw0GAbJ--0">
          <mxGeometry y="130" width="160" height="26" as="geometry" />
        </mxCell>
        <mxCell id="c7sYR78lZFLPJRSmrGxY-19" value="DELETE /user/:userid" style="text;align=left;verticalAlign=top;spacingLeft=4;spacingRight=4;overflow=hidden;rotatable=0;points=[[0,0.5],[1,0.5]];portConstraint=eastwest;rounded=0;shadow=0;html=0;" vertex="1" parent="zkfFHV4jXpPFQw0GAbJ--0">
          <mxGeometry y="156" width="160" height="26" as="geometry" />
        </mxCell>
        <mxCell id="c7sYR78lZFLPJRSmrGxY-4" value="GET /session/:sessionid" style="text;align=left;verticalAlign=top;spacingLeft=4;spacingRight=4;overflow=hidden;rotatable=0;points=[[0,0.5],[1,0.5]];portConstraint=eastwest;rounded=0;shadow=0;html=0;" vertex="1" parent="zkfFHV4jXpPFQw0GAbJ--0">
          <mxGeometry y="182" width="160" height="26" as="geometry" />
        </mxCell>
        <mxCell id="c7sYR78lZFLPJRSmrGxY-38" style="edgeStyle=orthogonalEdgeStyle;rounded=0;orthogonalLoop=1;jettySize=auto;html=1;" edge="1" parent="WIyWlLk6GJQsqaUBKTNV-1" source="c7sYR78lZFLPJRSmrGxY-5" target="c7sYR78lZFLPJRSmrGxY-18">
          <mxGeometry relative="1" as="geometry" />
        </mxCell>
        <mxCell id="c7sYR78lZFLPJRSmrGxY-49" value="Update history" style="edgeLabel;html=1;align=center;verticalAlign=middle;resizable=0;points=[];fontSize=6;" connectable="0" vertex="1" parent="c7sYR78lZFLPJRSmrGxY-38">
          <mxGeometry x="0.2713" y="-2" relative="1" as="geometry">
            <mxPoint x="7" y="-8" as="offset" />
          </mxGeometry>
        </mxCell>
        <mxCell id="c7sYR78lZFLPJRSmrGxY-40" style="edgeStyle=orthogonalEdgeStyle;rounded=0;orthogonalLoop=1;jettySize=auto;html=1;" edge="1" parent="WIyWlLk6GJQsqaUBKTNV-1" source="c7sYR78lZFLPJRSmrGxY-5" target="zkfFHV4jXpPFQw0GAbJ--2">
          <mxGeometry relative="1" as="geometry">
            <Array as="points">
              <mxPoint x="288" y="300" />
              <mxPoint x="288" y="274" />
            </Array>
          </mxGeometry>
        </mxCell>
        <mxCell id="c7sYR78lZFLPJRSmrGxY-48" value="Get histories by history id" style="edgeLabel;html=1;align=center;verticalAlign=middle;resizable=0;points=[];fontSize=6;" connectable="0" vertex="1" parent="c7sYR78lZFLPJRSmrGxY-40">
          <mxGeometry x="0.3825" y="1" relative="1" as="geometry">
            <mxPoint x="3" y="-4" as="offset" />
          </mxGeometry>
        </mxCell>
        <mxCell id="c7sYR78lZFLPJRSmrGxY-41" style="edgeStyle=orthogonalEdgeStyle;rounded=0;orthogonalLoop=1;jettySize=auto;html=1;" edge="1" parent="WIyWlLk6GJQsqaUBKTNV-1" source="c7sYR78lZFLPJRSmrGxY-5" target="c7sYR78lZFLPJRSmrGxY-17">
          <mxGeometry relative="1" as="geometry">
            <Array as="points">
              <mxPoint x="288" y="300" />
              <mxPoint x="288" y="248" />
            </Array>
          </mxGeometry>
        </mxCell>
        <mxCell id="c7sYR78lZFLPJRSmrGxY-47" value="Get all histories" style="edgeLabel;html=1;align=center;verticalAlign=middle;resizable=0;points=[];fontSize=6;" connectable="0" vertex="1" parent="c7sYR78lZFLPJRSmrGxY-41">
          <mxGeometry x="0.4646" y="3" relative="1" as="geometry">
            <mxPoint y="-3" as="offset" />
          </mxGeometry>
        </mxCell>
        <mxCell id="c7sYR78lZFLPJRSmrGxY-42" style="edgeStyle=orthogonalEdgeStyle;rounded=0;orthogonalLoop=1;jettySize=auto;html=1;" edge="1" parent="WIyWlLk6GJQsqaUBKTNV-1" source="c7sYR78lZFLPJRSmrGxY-5" target="zkfFHV4jXpPFQw0GAbJ--1">
          <mxGeometry relative="1" as="geometry">
            <Array as="points">
              <mxPoint x="288" y="300" />
              <mxPoint x="288" y="222" />
            </Array>
          </mxGeometry>
        </mxCell>
        <mxCell id="c7sYR78lZFLPJRSmrGxY-46" value="Create new history OR&lt;br style=&quot;font-size: 6px;&quot;&gt;add completed question in the history" style="edgeLabel;html=1;align=center;verticalAlign=middle;resizable=0;points=[];fontSize=6;" connectable="0" vertex="1" parent="c7sYR78lZFLPJRSmrGxY-42">
          <mxGeometry x="0.48" y="3" relative="1" as="geometry">
            <mxPoint x="4" y="-6" as="offset" />
          </mxGeometry>
        </mxCell>
        <mxCell id="c7sYR78lZFLPJRSmrGxY-43" style="edgeStyle=orthogonalEdgeStyle;rounded=0;orthogonalLoop=1;jettySize=auto;html=1;" edge="1" parent="WIyWlLk6GJQsqaUBKTNV-1" source="c7sYR78lZFLPJRSmrGxY-5" target="zkfFHV4jXpPFQw0GAbJ--3">
          <mxGeometry relative="1" as="geometry">
            <Array as="points">
              <mxPoint x="288" y="300" />
              <mxPoint x="288" y="326" />
            </Array>
          </mxGeometry>
        </mxCell>
        <mxCell id="c7sYR78lZFLPJRSmrGxY-51" value="Get histories by userid" style="edgeLabel;html=1;align=center;verticalAlign=middle;resizable=0;points=[];fontSize=6;" connectable="0" vertex="1" parent="c7sYR78lZFLPJRSmrGxY-43">
          <mxGeometry x="0.4477" y="1" relative="1" as="geometry">
            <mxPoint x="-2" y="-5" as="offset" />
          </mxGeometry>
        </mxCell>
        <mxCell id="c7sYR78lZFLPJRSmrGxY-44" style="edgeStyle=orthogonalEdgeStyle;rounded=0;orthogonalLoop=1;jettySize=auto;html=1;" edge="1" parent="WIyWlLk6GJQsqaUBKTNV-1" source="c7sYR78lZFLPJRSmrGxY-5" target="c7sYR78lZFLPJRSmrGxY-19">
          <mxGeometry relative="1" as="geometry">
            <Array as="points">
              <mxPoint x="288" y="300" />
              <mxPoint x="288" y="352" />
            </Array>
          </mxGeometry>
        </mxCell>
        <mxCell id="c7sYR78lZFLPJRSmrGxY-53" value="Delete history by userid" style="edgeLabel;html=1;align=center;verticalAlign=middle;resizable=0;points=[];fontSize=6;" connectable="0" vertex="1" parent="c7sYR78lZFLPJRSmrGxY-44">
          <mxGeometry x="0.4873" y="1" relative="1" as="geometry">
            <mxPoint x="1" y="-4" as="offset" />
          </mxGeometry>
        </mxCell>
        <mxCell id="c7sYR78lZFLPJRSmrGxY-45" style="edgeStyle=orthogonalEdgeStyle;rounded=0;orthogonalLoop=1;jettySize=auto;html=1;" edge="1" parent="WIyWlLk6GJQsqaUBKTNV-1" source="c7sYR78lZFLPJRSmrGxY-5" target="c7sYR78lZFLPJRSmrGxY-4">
          <mxGeometry relative="1" as="geometry">
            <Array as="points">
              <mxPoint x="288" y="300" />
              <mxPoint x="288" y="378" />
            </Array>
          </mxGeometry>
        </mxCell>
        <mxCell id="c7sYR78lZFLPJRSmrGxY-54" value="Get history by sessionid" style="edgeLabel;html=1;align=center;verticalAlign=middle;resizable=0;points=[];fontSize=6;" connectable="0" vertex="1" parent="c7sYR78lZFLPJRSmrGxY-45">
          <mxGeometry x="0.5324" y="1" relative="1" as="geometry">
            <mxPoint x="1" y="-5" as="offset" />
          </mxGeometry>
        </mxCell>
        <mxCell id="c7sYR78lZFLPJRSmrGxY-5" value="Frontend" style="rounded=1;whiteSpace=wrap;html=1;" vertex="1" parent="WIyWlLk6GJQsqaUBKTNV-1">
          <mxGeometry x="103" y="270" width="120" height="60" as="geometry" />
        </mxCell>
        <mxCell id="c7sYR78lZFLPJRSmrGxY-22" style="edgeStyle=orthogonalEdgeStyle;rounded=0;orthogonalLoop=1;jettySize=auto;html=1;dashed=1;endArrow=none;endFill=0;" edge="1" parent="WIyWlLk6GJQsqaUBKTNV-1" source="c7sYR78lZFLPJRSmrGxY-6" target="c7sYR78lZFLPJRSmrGxY-16">
          <mxGeometry relative="1" as="geometry" />
        </mxCell>
        <mxCell id="c7sYR78lZFLPJRSmrGxY-6" value="JwtGuard" style="rounded=0;whiteSpace=wrap;html=1;" vertex="1" parent="WIyWlLk6GJQsqaUBKTNV-1">
          <mxGeometry x="630" y="281.5" width="99" height="37" as="geometry" />
        </mxCell>
        <mxCell id="c7sYR78lZFLPJRSmrGxY-16" value="Atlas" style="shape=datastore;whiteSpace=wrap;html=1;" vertex="1" parent="WIyWlLk6GJQsqaUBKTNV-1">
          <mxGeometry x="774" y="270" width="60" height="60" as="geometry" />
        </mxCell>
        <mxCell id="c7sYR78lZFLPJRSmrGxY-25" style="edgeStyle=orthogonalEdgeStyle;rounded=0;orthogonalLoop=1;jettySize=auto;html=1;entryX=0;entryY=0.5;entryDx=0;entryDy=0;" edge="1" parent="WIyWlLk6GJQsqaUBKTNV-1" source="c7sYR78lZFLPJRSmrGxY-18" target="c7sYR78lZFLPJRSmrGxY-6">
          <mxGeometry relative="1" as="geometry" />
        </mxCell>
        <mxCell id="c7sYR78lZFLPJRSmrGxY-27" value="History Microservice" style="text;html=1;align=center;verticalAlign=middle;resizable=0;points=[];autosize=1;strokeColor=none;fillColor=none;" vertex="1" parent="WIyWlLk6GJQsqaUBKTNV-1">
          <mxGeometry x="293" y="135" width="126" height="27" as="geometry" />
        </mxCell>
      </root>
    </mxGraphModel>
  </diagram>
</mxfile>
